<svg xmlns="http://www.w3.org/2000/svg" width="132" height="24" viewBox="0 0 132 24" fill="none" class="h-7 w-32 text-orange-400 dark:text-white lg:h-8 lg:w-44"><path d="M131.281 23.278c-.206.071-.413.2-.619.192-1.054-.021-2.129.029-3.162-.135-2.172-.342-3.717-2.257-3.724-4.457-.007-2.2 0-4.394 0-6.594 0-.684-.043-.727-.747-.727-.613 0-1.232.008-1.845 0-.398 0-.505-.113-.505-.505V8.147c0-.264.092-.449.377-.463 2.898-.178 3.981-2.293 4.422-4.287.021-.114.05-.22.071-.334.05-.285.221-.406.499-.406.968 0 1.936-.007 2.905 0 .406 0 .562.178.484.59-.242 1.318-.655 2.578-1.424 3.696-.1.143-.192.4-.128.506.078.135.32.228.498.235.776.021 1.553-.007 2.322.021.192.007.384.136.576.207v3.418c-.178.078-.349.22-.527.227-.84.022-1.687.008-2.527.015-.463 0-.57.107-.57.555v3.311c0 .72-.014 1.431.007 2.15.036 1.36.712 2.016 2.072 2.023.321 0 .641-.021.954.007.2.021.392.121.591.185v3.475zM23.668 21.712c0 .355.007.719 0 1.075-.008.477-.221.69-.691.698-.84.007-1.688.007-2.528 0-.434 0-.648-.221-.67-.648v-.242V.861c0-.712.143-.854.862-.854h2.186c.677 0 .833.156.833.854V9.521c.114-.1.178-.135.228-.192 2.906-3.055 7.534-2.528 9.998-.207 1.616 1.517 2.378 3.397 2.513 5.576.129 2.114-.227 4.101-1.445 5.881-1.901 2.777-5.24 4.03-8.346 3.112a5.342 5.342 0 01-2.727-1.844c-.043-.057-.07-.136-.1-.207-.035.022-.078.043-.113.072zm.1-6.124v.27c.028 1.816.91 3.12 2.534 3.838 1.63.72 3.24.556 4.636-.633 1.125-.954 1.502-2.243 1.467-3.675-.079-3.133-2.713-4.877-5.512-4.13-1.95.52-3.126 2.18-3.126 4.33zM82.498 9.186c0-.363-.007-.633 0-.904.007-.441.214-.655.648-.655.869-.007 1.73-.007 2.6 0 .434 0 .647.214.647.655v14.526c0 .456-.213.67-.67.677-.854.007-1.708.007-2.563 0-.448-.008-.655-.228-.662-.684l-.021-.854c0-.015-.029-.029-.079-.072a4.032 4.032 0 01-1.68 1.389c-2.613 1.182-5.134.926-7.49-.662-2.066-1.396-3.105-3.425-3.34-5.882-.186-1.944.07-3.824 1.04-5.547 2.1-3.745 5.995-4.55 9.1-3.617.896.27 1.68.747 2.285 1.48.028.036.071.058.185.15zm-.085 6.43c-.036-.384-.043-.776-.121-1.153-.634-3.04-3.96-4.052-6.245-2.791-1.602.882-2.236 2.35-2.186 4.144.057 2.221 1.759 4.009 3.909 4.187 2.592.206 4.75-1.895 4.643-4.387zM113.992 16.428h-5.504c-.548 0-.676.164-.548.69.477 1.973 2.271 3.248 4.329 3.112 1.275-.078 2.3-.598 3.069-1.609a.653.653 0 01.584-.27c1.011.007 2.03 0 3.041.007.527 0 .683.242.47.719-1.446 3.304-4.778 5.19-8.353 4.85-3.909-.371-6.786-3.561-7.085-7.335-.178-2.2.221-4.237 1.545-6.046 2.777-3.802 7.249-4.03 10.225-2.485 2.329 1.21 3.66 3.226 4.159 5.775.135.677.142 1.381.178 2.072.021.399-.135.527-.534.527-1.866-.007-3.724-.007-5.576-.007zm-1.972-2.642h.648c.869 0 1.73.007 2.599 0 .385 0 .584-.263.42-.57-.52-.96-1.225-1.73-2.278-2.1-1.909-.676-3.931.128-4.949 1.958-.257.463-.107.712.42.72 1.039-.008 2.093-.008 3.14-.008zM88.08 15.588V8.31c0-.542.093-.627.642-.627h2.698c.428 0 .52.114.556.548.014.178.1.406.228.513.2.157.37-.028.527-.178 1.26-1.196 2.798-1.502 4.464-1.332 1.823.186 3.304.969 4.301 2.55.719 1.146.954 2.428.961 3.752.015 3.119.008 6.245 0 9.364 0 .47-.114.584-.591.584h-2.698c-.477 0-.584-.114-.584-.584v-8.58c0-.634-.093-1.247-.37-1.823-.542-1.118-1.517-1.524-2.678-1.581-2.143-.1-3.574 1.289-3.574 3.432v8.51c0 .505-.114.611-.627.619h-2.6c-.562 0-.661-.1-.661-.648.007-2.414.007-4.828.007-7.242zM58.623 18.842h1.06c.385 0 .67.164.862.506.634 1.082 2.037 1.566 3.205 1.125.377-.143.669-.385.861-.741.306-.577.214-1.19-.32-1.545a7.294 7.294 0 00-1.453-.727c-1.118-.413-2.271-.733-3.382-1.167a5.3 5.3 0 01-2.236-1.638c-1.524-1.894-1.11-4.685.904-6.152 1.496-1.09 3.176-1.41 4.985-1.253 1.246.106 2.42.434 3.403 1.253a5.648 5.648 0 011.766 2.549c.221.64-.163 1.182-.84 1.19-.705.006-1.41 0-2.122 0-.377 0-.662-.165-.819-.507-.598-1.324-2.542-1.58-3.525-.982-.754.456-.868 1.232-.192 1.801.399.335.883.606 1.375.798.875.342 1.787.598 2.677.911 1.04.364 2.022.848 2.784 1.674 1.766 1.922 1.424 5.091-.712 6.707-1.517 1.154-3.268 1.446-5.113 1.275a8.052 8.052 0 01-1.922-.413c-1.638-.598-2.635-1.851-3.219-3.454-.235-.648.186-1.189.883-1.203.363-.007.727-.007 1.09-.007zM41.918 10.603c.07-.106.15-.213.22-.32.862-1.267 1.959-2.243 3.497-2.535.776-.142 1.58-.114 2.378-.121.313 0 .491.25.498.555.014.89.014 1.773 0 2.663-.007.37-.235.542-.676.563-.983.05-1.951.185-2.877.527-.541.2-1.075.449-1.56.762-1.075.69-1.587 1.709-1.58 2.998.007 2.321 0 4.642 0 6.97 0 .634-.178.813-.812.82h-2.321c-.513 0-.727-.221-.727-.727V8.34c0-.52.207-.72.727-.72h2.428c.505 0 .705.2.705.706.007.648 0 1.296 0 1.944 0 .107.014.213.021.32.029 0 .05.007.079.014zM55.148 15.517v6.558c0 .263-.014.52-.021.783-.015.377-.221.605-.591.612-.926.015-1.845.015-2.77 0-.37-.007-.57-.242-.577-.626-.007-.399 0-.798 0-1.196v-9.393c0-.69-.178-.861-.876-.861-.69 0-.833-.15-.833-.848V8.36c0-.548.2-.747.74-.747h4.166c.555 0 .74.185.74.733v7.17h.022zM52.627.015a2.474 2.474 0 012.5 2.45 2.479 2.479 0 01-2.464 2.527 2.498 2.498 0 01-2.528-2.47c-.014-1.375 1.104-2.5 2.492-2.507zM15.792 12.554c-.014 2.336-.805 4.408-2.1 6.316-1.311 1.923-2.977 3.504-4.814 4.9-.477.363-.969.227-1.225-.321-.143-.3-.27-.605-.435-.89-.135-.242-.092-.406.1-.598 1.332-1.325 2.471-2.791 3.304-4.493 1.773-3.618 1.51-7.17-.384-10.66-.812-1.502-1.852-2.841-3.02-4.08-.192-.2-.27-.392-.242-.67.043-.44.05-.882.086-1.33.021-.279.064-.57.363-.685.292-.106.548-.007.783.193 2.236 1.844 4.28 3.86 5.79 6.358 1.103 1.845 1.78 3.803 1.794 5.96z" fill="currentColor"></path><path d="M10.466 12.554c-.071 2.329-.918 4.365-2.25 6.21-.47.655-1.018 1.253-1.545 1.865-.235.27-.328.242-.555-.043-.428-.548-.848-1.096-1.31-1.616-.2-.22-.221-.37-.079-.62.733-1.245 1.26-2.57 1.51-4.001.32-1.823.15-3.603-.449-5.348-.085-.242-.057-.441.007-.683.3-1.118.57-2.25.855-3.368.028-.121.092-.264.185-.32.057-.036.235.049.306.134 1.396 1.695 2.535 3.532 3.019 5.704.15.684.207 1.389.306 2.086zM5.011 12.611c-.035 1.723-.526 3.311-1.352 4.814-.15.27-.3.32-.563.142-.748-.498-1.517-.968-2.271-1.452-.207-.136-.42-.278-.592-.456-.341-.342-.306-.69.093-.976.128-.092.27-.17.413-.235 1.524-.697 2.699-1.787 3.632-3.161.078-.114.227-.171.348-.257.065.136.179.257.193.4.057.384.071.783.1 1.181z" fill="white"></path>
    <path d="M131.281 23.278c-.206.071-.413.2-.619.192-1.054-.021-2.129.029-3.162-.135-2.172-.342-3.717-2.257-3.724-4.457-.007-2.2 0-4.394 0-6.594 0-.684-.043-.727-.747-.727-.613 0-1.232.008-1.845 0-.398 0-.505-.113-.505-.505V8.147c0-.264.092-.449.377-.463 2.898-.178 3.981-2.293 4.422-4.287.021-.114.05-.22.071-.334.05-.285.221-.406.499-.406.968 0 1.936-.007 2.905 0 .406 0 .562.178.484.59-.242 1.318-.655 2.578-1.424 3.696-.1.143-.192.4-.128.506.078.135.32.228.498.235.776.021 1.553-.007 2.322.021.192.007.384.136.576.207v3.418c-.178.078-.349.22-.527.227-.84.022-1.687.008-2.527.015-.463 0-.57.107-.57.555v3.311c0 .72-.014 1.431.007 2.15.036 1.36.712 2.016 2.072 2.023.321 0 .641-.021.954.007.2.021.392.121.591.185v3.475zM23.668 21.712c0 .355.007.719 0 1.075-.008.477-.221.69-.691.698-.84.007-1.688.007-2.528 0-.434 0-.648-.221-.67-.648v-.242V.861c0-.712.143-.854.862-.854h2.186c.677 0 .833.156.833.854V9.521c.114-.1.178-.135.228-.192 2.906-3.055 7.534-2.528 9.998-.207 1.616 1.517 2.378 3.397 2.513 5.576.129 2.114-.227 4.101-1.445 5.881-1.901 2.777-5.24 4.03-8.346 3.112a5.342 5.342 0 01-2.727-1.844c-.043-.057-.07-.136-.1-.207-.035.022-.078.043-.113.072zm.1-6.124v.27c.028 1.816.91 3.12 2.534 3.838 1.63.72 3.24.556 4.636-.633 1.125-.954 1.502-2.243 1.467-3.675-.079-3.133-2.713-4.877-5.512-4.13-1.95.52-3.126 2.18-3.126 4.33zM82.498 9.186c0-.363-.007-.633 0-.904.007-.441.214-.655.648-.655.869-.007 1.73-.007 2.6 0 .434 0 .647.214.647.655v14.526c0 .456-.213.67-.67.677-.854.007-1.708.007-2.563 0-.448-.008-.655-.228-.662-.684l-.021-.854c0-.015-.029-.029-.079-.072a4.032 4.032 0 01-1.68 1.389c-2.613 1.182-5.134.926-7.49-.662-2.066-1.396-3.105-3.425-3.34-5.882-.186-1.944.07-3.824 1.04-5.547 2.1-3.745 5.995-4.55 9.1-3.617.896.27 1.68.747 2.285 1.48.028.036.071.058.185.15zm-.085 6.43c-.036-.384-.043-.776-.121-1.153-.634-3.04-3.96-4.052-6.245-2.791-1.602.882-2.236 2.35-2.186 4.144.057 2.221 1.759 4.009 3.909 4.187 2.592.206 4.75-1.895 4.643-4.387zM113.992 16.428h-5.504c-.548 0-.676.164-.548.69.477 1.973 2.271 3.248 4.329 3.112 1.275-.078 2.3-.598 3.069-1.609a.653.653 0 01.584-.27c1.011.007 2.03 0 3.041.007.527 0 .683.242.47.719-1.446 3.304-4.778 5.19-8.353 4.85-3.909-.371-6.786-3.561-7.085-7.335-.178-2.2.221-4.237 1.545-6.046 2.777-3.802 7.249-4.03 10.225-2.485 2.329 1.21 3.66 3.226 4.159 5.775.135.677.142 1.381.178 2.072.021.399-.135.527-.534.527-1.866-.007-3.724-.007-5.576-.007zm-1.972-2.642h.648c.869 0 1.73.007 2.599 0 .385 0 .584-.263.42-.57-.52-.96-1.225-1.73-2.278-2.1-1.909-.676-3.931.128-4.949 1.958-.257.463-.107.712.42.72 1.039-.008 2.093-.008 3.14-.008zM88.08 15.588V8.31c0-.542.093-.627.642-.627h2.698c.428 0 .52.114.556.548.014.178.1.406.228.513.2.157.37-.028.527-.178 1.26-1.196 2.798-1.502 4.464-1.332 1.823.186 3.304.969 4.301 2.55.719 1.146.954 2.428.961 3.752.015 3.119.008 6.245 0 9.364 0 .47-.114.584-.591.584h-2.698c-.477 0-.584-.114-.584-.584v-8.58c0-.634-.093-1.247-.37-1.823-.542-1.118-1.517-1.524-2.678-1.581-2.143-.1-3.574 1.289-3.574 3.432v8.51c0 .505-.114.611-.627.619h-2.6c-.562 0-.661-.1-.661-.648.007-2.414.007-4.828.007-7.242zM58.623 18.842h1.06c.385 0 .67.164.862.506.634 1.082 2.037 1.566 3.205 1.125.377-.143.669-.385.861-.741.306-.577.214-1.19-.32-1.545a7.294 7.294 0 00-1.453-.727c-1.118-.413-2.271-.733-3.382-1.167a5.3 5.3 0 01-2.236-1.638c-1.524-1.894-1.11-4.685.904-6.152 1.496-1.09 3.176-1.41 4.985-1.253 1.246.106 2.42.434 3.403 1.253a5.648 5.648 0 011.766 2.549c.221.64-.163 1.182-.84 1.19-.705.006-1.41 0-2.122 0-.377 0-.662-.165-.819-.507-.598-1.324-2.542-1.58-3.525-.982-.754.456-.868 1.232-.192 1.801.399.335.883.606 1.375.798.875.342 1.787.598 2.677.911 1.04.364 2.022.848 2.784 1.674 1.766 1.922 1.424 5.091-.712 6.707-1.517 1.154-3.268 1.446-5.113 1.275a8.052 8.052 0 01-1.922-.413c-1.638-.598-2.635-1.851-3.219-3.454-.235-.648.186-1.189.883-1.203.363-.007.727-.007 1.09-.007zM41.918 10.603c.07-.106.15-.213.22-.32.862-1.267 1.959-2.243 3.497-2.535.776-.142 1.58-.114 2.378-.121.313 0 .491.25.498.555.014.89.014 1.773 0 2.663-.007.37-.235.542-.676.563-.983.05-1.951.185-2.877.527-.541.2-1.075.449-1.56.762-1.075.69-1.587 1.709-1.58 2.998.007 2.321 0 4.642 0 6.97 0 .634-.178.813-.812.82h-2.321c-.513 0-.727-.221-.727-.727V8.34c0-.52.207-.72.727-.72h2.428c.505 0 .705.2.705.706.007.648 0 1.296 0 1.944 0 .107.014.213.021.32.029 0 .05.007.079.014zM55.148 15.517v6.558c0 .263-.014.52-.021.783-.015.377-.221.605-.591.612-.926.015-1.845.015-2.77 0-.37-.007-.57-.242-.577-.626-.007-.399 0-.798 0-1.196v-9.393c0-.69-.178-.861-.876-.861-.69 0-.833-.15-.833-.848V8.36c0-.548.2-.747.74-.747h4.166c.555 0 .74.185.74.733v7.17h.022zM52.627.015a2.474 2.474 0 012.5 2.45 2.479 2.479 0 01-2.464 2.527 2.498 2.498 0 01-2.528-2.47c-.014-1.375 1.104-2.5 2.492-2.507zM15.792 12.554c-.014 2.336-.805 4.408-2.1 6.316-1.311 1.923-2.977 3.504-4.814 4.9-.477.363-.969.227-1.225-.321-.143-.3-.27-.605-.435-.89-.135-.242-.092-.406.1-.598 1.332-1.325 2.471-2.791 3.304-4.493 1.773-3.618 1.51-7.17-.384-10.66-.812-1.502-1.852-2.841-3.02-4.08-.192-.2-.27-.392-.242-.67.043-.44.05-.882.086-1.33.021-.279.064-.57.363-.685.292-.106.548-.007.783.193 2.236 1.844 4.28 3.86 5.79 6.358 1.103 1.845 1.78 3.803 1.794 5.96z" fill="white"></path>
    <path d="M10.466 12.554c-.071 2.329-.918 4.365-2.25 6.21-.47.655-1.018 1.253-1.545 1.865-.235.27-.328.242-.555-.043-.428-.548-.848-1.096-1.31-1.616-.2-.22-.221-.37-.079-.62.733-1.245 1.26-2.57 1.51-4.001.32-1.823.15-3.603-.449-5.348-.085-.242-.057-.441.007-.683.3-1.118.57-2.25.855-3.368.028-.121.092-.264.185-.32.057-.036.235.049.306.134 1.396 1.695 2.535 3.532 3.019 5.704.15.684.207 1.389.306 2.086zM5.011 12.611c-.035 1.723-.526 3.311-1.352 4.814-.15.27-.3.32-.563.142-.748-.498-1.517-.968-2.271-1.452-.207-.136-.42-.278-.592-.456-.341-.342-.306-.69.093-.976.128-.092.27-.17.413-.235 1.524-.697 2.699-1.787 3.632-3.161.078-.114.227-.171.348-.257.065.136.179.257.193.4.057.384.071.783.1 1.181z" fill="white"></path>
</svg>