<?xml version="1.0" encoding="UTF-8" standalone="no"?><!DOCTYPE svg PUBLIC "-//W3C//DTD SVG 1.1//EN" "http://www.w3.org/Graphics/SVG/1.1/DTD/svg11.dtd"><svg width="100%" height="100%" viewBox="0 0 35 35" version="1.1" xmlns="http://www.w3.org/2000/svg" xmlns:xlink="http://www.w3.org/1999/xlink" xml:space="preserve" xmlns:serif="http://www.serif.com/" style="fill-rule:evenodd;clip-rule:evenodd;stroke-linejoin:round;stroke-miterlimit:2;"><g><g><path d="M34.685,5.669c-0,-3.129 -2.54,-5.669 -5.669,-5.669l-23.347,0c-3.129,0 -5.669,2.54 -5.669,5.669l0,23.347c0,3.129 2.54,5.669 5.669,5.669l23.347,-0c3.129,-0 5.669,-2.54 5.669,-5.669l-0,-23.347Z" style="fill:#ed0e67;"/><path d="M25.403,26.886c0,0.526 -0.429,0.954 -0.955,0.954l-4.332,-0c-0.528,-0 -0.957,-0.428 -0.957,-0.954l0,-9.403c0,-0.528 0.429,-0.955 0.957,-0.955l4.332,-0c0.526,-0 0.955,0.428 0.955,0.955l0,9.403l0,-0Z" style="fill:#f8c340;"/><path d="M22.283,22.723c-0,0.887 -0.721,1.608 -1.61,1.608l-9.783,0c-0.888,0 -1.608,-0.721 -1.608,-1.608l-0,-14.269c-0,-0.889 0.72,-1.609 1.608,-1.609l9.783,0c0.889,0 1.61,0.72 1.61,1.609l-0,14.269Z" style="fill:#375ba8;"/></g><path d="M21.177,16.527c-0.527,0 -0.956,0.428 -0.956,0.955l0,6.849l1.514,-0c0.889,-0 1.61,-0.721 1.61,-1.609l-0,-6.195l-2.168,0Z" style="fill:#49544a;"/></g></svg>