<svg width="128" height="20" viewBox="0 0 128 20" fill="none" xmlns="http://www.w3.org/2000/svg">
<g clip-path="url(#clip0_590_7500)">
<path d="M34.6188 9.16938V7.36767C34.6188 7.12113 34.4145 6.92005 34.1644 6.92005H26.1453C25.8949 6.92005 25.6918 7.12113 25.6914 7.36767V9.65137C25.8386 9.62699 25.9908 9.61562 26.1453 9.61562L34.1644 9.61746C34.4147 9.61562 34.6188 9.41554 34.6188 9.16938Z" fill="#2B903C"/>
<path d="M103.495 9.1695V7.36779C103.495 7.12126 103.291 6.92017 103.041 6.92017H95.022C94.7707 6.92017 94.5678 7.12126 94.5674 7.36779V9.65149C94.7159 9.62711 94.8679 9.61574 95.022 9.61574L103.041 9.61758C103.292 9.61574 103.495 9.41567 103.495 9.1695Z" fill="#2B903C"/>
<path d="M17.929 6.91314H9.83278C9.58427 6.91314 9.37988 7.1121 9.37988 7.35841V9.63074C9.52819 9.6076 9.67874 9.59512 9.83278 9.59512L17.929 9.59623C18.1798 9.59512 18.3808 9.39689 18.3813 9.15167V7.35841C18.3808 7.1121 18.1779 6.91314 17.929 6.91314Z" fill="#2B903C"/>
<path d="M121.007 6.82755C121.007 6.82755 111.78 6.82755 111.599 6.82755C111.298 6.82755 111.138 7.00641 111.138 7.21675C111.138 7.42488 111.138 8.66655 111.138 8.66655L121.007 8.67661V10.9618L111.138 10.9718C111.138 10.9718 111.138 12.4671 111.138 12.707C111.138 12.9472 111.375 13.0884 111.591 13.0884C111.751 13.0884 121.007 13.0884 121.007 13.0884V15.4283C121.007 15.4283 111.89 15.4283 111.551 15.4283C109.6 15.4283 108.533 14.048 108.533 12.6875C108.533 10.489 108.533 7.67635 108.533 7.39618C108.533 6.2234 109.476 4.57367 111.37 4.57367C113.716 4.57367 121.007 4.57367 121.007 4.57367V6.82755ZM102.905 15.4435L99.3855 11.9785L95.0222 11.9774C94.7764 11.9785 94.5783 12.1662 94.568 12.4042V14.5445H94.5676V15.4424H92.1707V7.36777C92.1727 5.81628 93.4457 4.5595 95.0222 4.55826H103.041C104.617 4.5595 105.891 5.81628 105.892 7.36777L105.891 9.16948C105.891 10.7225 104.615 11.9774 103.041 11.9785H102.775L106.311 15.4435H102.905ZM89.5323 6.82755C89.5323 6.82755 80.3057 6.82755 80.1246 6.82755C79.8248 6.82755 79.665 7.00641 79.665 7.21675C79.665 7.42488 79.665 8.66655 79.665 8.66655L89.5323 8.67661V10.9618L79.665 10.9718C79.665 10.9718 79.665 12.4671 79.665 12.707C79.665 12.9472 79.9015 13.0884 80.116 13.0884C80.2766 13.0884 89.5323 13.0884 89.5323 13.0884V15.4283C89.5323 15.4283 80.4163 15.4283 80.078 15.4283C78.1257 15.4283 77.0593 14.048 77.0593 12.6875C77.0593 10.489 77.0593 7.67635 77.0593 7.39618C77.0593 6.2234 78.0014 4.57367 79.8955 4.57367C82.2417 4.57367 89.5323 4.57367 89.5323 4.57367V6.82755ZM74.4201 15.476H71.8301V4.52536H74.4201V15.476ZM69.192 15.4466H66.6962V7.70307L63.1461 14.1392H60.991L57.2637 7.67526V15.4466H54.7683V4.56662H57.8213L61.9798 11.7118L66.2199 4.55487H69.192V15.4466ZM52.1296 6.82755C52.1296 6.82755 42.9031 6.82755 42.7223 6.82755C42.4214 6.82755 42.2619 7.00641 42.2619 7.21675C42.2619 7.42488 42.2619 8.66655 42.2619 8.66655L52.1296 8.67661V10.9618L42.2619 10.9718C42.2619 10.9718 42.2619 12.4671 42.2619 12.707C42.2619 12.9472 42.4986 13.0884 42.7129 13.0884C42.8739 13.0884 52.1296 13.0884 52.1296 13.0884V15.4283C52.1296 15.4283 43.0123 15.4283 42.6746 15.4283C40.7229 15.4283 39.6565 14.048 39.6565 12.6875C39.6565 10.489 39.6565 7.67635 39.6565 7.39618C39.6565 6.2234 40.5981 4.57367 42.4923 4.57367C44.8394 4.57367 52.1296 4.57367 52.1296 4.57367V6.82755ZM34.0272 15.4435L30.5077 11.9785L26.1448 11.9774C25.8996 11.9785 25.7011 12.1662 25.6913 12.4042V14.5445H25.691V15.4424H23.2939V7.36777C23.2943 5.81628 24.5683 4.5595 26.1448 4.55826H34.1639C35.74 4.5595 37.014 5.81628 37.0142 7.36777V9.16948C37.014 10.7225 35.7377 11.9774 34.1633 11.9785H33.8971L37.4343 15.4435H34.0272ZM20.6547 9.1517C20.6541 10.6957 19.3847 11.9475 17.8165 11.9475H9.83292C9.58233 11.9475 9.38002 12.1468 9.38002 12.392V15.4404H6.99611L6.9956 14.5036H6.9944V7.35844C6.99611 5.81334 8.264 4.56111 9.83292 4.56111H17.8165C19.3853 4.56111 20.6541 5.81225 20.6553 7.35844L20.6547 9.1517ZM126.084 0.000564575H1.91656C0.858424 0.000564575 0 0.846161 0 1.88948V18.1112C0 19.1557 0.858424 20 1.91656 20H126.084C127.144 20 128.001 19.1557 128.001 18.1112V1.88948C128.001 0.846161 127.144 0.000564575 126.084 0.000564575Z" fill="#2B903C"/>
</g>
<defs>
<clipPath id="clip0_590_7500">
<rect width="128" height="20" fill="white"/>
</clipPath>
</defs>
</svg>
