<svg width="131" height="55" viewBox="0 0 131 55" fill="none" xmlns="http://www.w3.org/2000/svg">
<path d="M93.8143 38.8773C95.2742 38.9895 96.7322 39.1109 98.1882 39.2415V13.538H93.8143V38.8773ZM23.4614 29.3415L17.7658 13.538H13.6095V41.4649C15.0651 41.257 16.5228 41.0581 17.9827 40.8682V25.6817L23.0473 40.2447C24.6402 40.0596 26.236 39.8848 27.8346 39.7201V13.538H23.4614V29.3415ZM32.0405 39.3129C36.0709 38.9467 40.1203 38.6456 44.1885 38.4096V34.0963C41.5889 34.2464 38.9973 34.4236 36.4137 34.6281V28.098C38.1094 28.0805 40.3437 28.0288 42.3196 28.0536V23.7403C40.7396 23.7366 38.1997 23.7621 36.4137 23.7854V17.8899H44.1885V13.538H32.0405V39.3129ZM46.9919 17.8899H51.5689V38.0592C53.0245 38.0048 54.4822 37.9587 55.9421 37.9208V17.8877H60.5191V13.538H46.9919V17.8899ZM63.3233 37.8035H67.6965V27.8438H73.625V23.5298H67.6965V17.8899H75.5317V13.538H63.3233V37.8035ZM117.463 13.538H112.66L109.493 20.8847L106.649 13.538H101.918L107.001 26.6622L101.452 39.5439C102.988 39.6939 104.52 39.8537 106.049 40.0232L109.277 32.5352L112.474 40.7896C114.139 41.0037 115.801 41.2286 117.458 41.4641H117.466L111.769 26.7569L117.463 13.538ZM82.7084 13.538H78.3351V38.017C82.3098 38.1539 86.2677 38.3543 90.2088 38.618V34.3047C87.7155 34.1376 85.2153 33.996 82.7084 33.8799V13.538Z" fill="#E50914"/>
</svg>
